<?xml version="1.0" encoding="iso-8859-1"?>
<!-- Generator: Adobe Illustrator 19.0.0, SVG Export Plug-In . SVG Version: 6.00 Build 0)  -->
<svg version="1.1" id="Capa_1" xmlns="http://www.w3.org/2000/svg" xmlns:xlink="http://www.w3.org/1999/xlink" x="0px" y="0px"
	 viewBox="0 0 512 512" style="enable-background:new 0 0 512 512;" xml:space="preserve">
<path style="fill:#AD7B64;" d="M299.328,362.856c-3.876,0-7.418-2.329-9.151-6.016l-34.215-72.799l-34.215,72.799
	c-1.733,3.687-5.276,6.016-9.151,6.016H97.595V494.35c0,5.729,4.365,10.373,9.75,10.373h148.618h148.618
	c5.386,0,9.75-4.644,9.75-10.373V362.856H299.328z"/>
<g>
	<polygon style="fill:#9E6B57;" points="255.986,504.724 276,504.724 276,326.673 255.986,284.091 	"/>
	<path style="fill:#9E6B57;" d="M117.609,494.35V362.856H97.595V494.35c0,5.729,4.365,10.373,9.75,10.373h20.013
		C121.973,504.724,117.609,500.079,117.609,494.35z"/>
</g>
<path style="fill:#FFC850;" d="M322.854,113.941c0-37.48-30.825-67.761-68.507-66.871c-36.525,0.862-65.855,31.444-65.264,67.974
	c0.447,27.698,17.736,51.298,42.068,61.026c0.861,0.344,1.433,1.164,1.433,2.09v18.71h46.76v-18.345
	c0-1.123,0.671-2.145,1.712-2.568C305.563,166.03,322.854,142.008,322.854,113.941z"/>
<path style="fill:#F9B428;" d="M251.163,176.069c-24.333-9.727-41.621-33.326-42.068-61.026
	c-0.544-33.691,24.369-62.303,56.899-67.226c-3.789-0.57-7.677-0.842-11.647-0.749c-36.524,0.862-65.855,31.444-65.264,67.974
	c0.448,27.698,17.735,51.298,42.068,61.026c0.861,0.344,1.434,1.164,1.434,2.09v18.71h20.013v-18.711
	C252.596,177.233,252.023,176.412,251.163,176.069z"/>
<g>
	<path style="fill:#9E6B57;" d="M71.911,363.856h140.685c3.876,0,7.418-2.359,9.151-6.093l34.215-73.721H101.017
		c-2.086,0-3.983,1.211-4.861,3.103L65.633,352.91C63.299,357.939,66.693,363.856,71.911,363.856z"/>
	<path style="fill:#9E6B57;" d="M440.015,363.856H299.328c-3.876,0-7.418-2.359-9.151-6.093l-34.215-73.721h151.975
		c3.899,0,7.443,2.263,9.084,5.799l29.271,63.07C448.627,357.939,445.233,363.856,440.015,363.856z"/>
</g>
<g>
	<path style="fill:#8C5A4B;" d="M85.645,352.909l30.522-65.766c0.879-1.892,2.775-3.103,4.861-3.103h-20.013
		c-2.086,0-3.983,1.211-4.861,3.103l-30.522,65.766c-2.334,5.028,1.061,10.945,6.279,10.945h20.013
		C86.706,363.856,83.312,357.939,85.645,352.909z"/>
	<path style="fill:#8C5A4B;" d="M310.19,357.763l-34.215-73.721h-20.013l34.215,73.721c1.733,3.734,5.276,6.093,9.151,6.093h20.013
		C315.467,363.856,311.924,361.496,310.19,357.763z"/>
</g>
<path style="fill:#FC932B;" d="M267.245,136.862h-22.564c-5.248,0-9.542-4.294-9.542-9.542v-0.494c0-5.248,4.294-9.542,9.542-9.542
	h22.564c5.249,0,9.542,4.294,9.542,9.542v0.494C276.787,132.567,272.493,136.862,267.245,136.862z"/>
<path style="fill:#D8DCE5;" d="M283.354,222.778l-9.732,19.466c-7.275,14.551-28.04,14.551-35.314,0l-9.732-19.466H283.354
	L283.354,222.778z"/>
<path style="fill:#C3C8D1;" d="M248.458,222.778h-19.885l9.732,19.466c5.428,10.854,18.359,13.607,27.6,8.266
	C259.564,246.846,258.774,243.412,248.458,222.778z"/>
<path style="fill:#008CFF;" d="M283.988,196.578h-56.05c-5.235,0-9.519,4.284-9.519,9.519v7.365c0,5.235,4.284,9.519,9.519,9.519
	h56.05c5.235,0,9.519-4.284,9.519-9.519v-7.365C293.507,200.861,289.224,196.578,283.988,196.578z"/>
<path style="fill:#0385DD;" d="M283.988,205.969h-56.05c-3.476,0-6.524-1.894-8.185-4.696c-0.842,1.418-1.334,3.064-1.334,4.823
	v7.365c0,5.235,4.284,9.519,9.519,9.519h56.05c5.235,0,9.519-4.284,9.519-9.519v-7.365c0-1.759-0.492-3.405-1.334-4.823
	C290.512,204.075,287.464,205.969,283.988,205.969z"/>
<path d="M453.122,348.626l-31.962-68.007c-1.237-2.632-3.884-4.313-6.792-4.313c-6.86,0-309.878,0-316.736,0
	c-2.909,0-5.555,1.681-6.793,4.313l-31.962,68.007c-4.684,9.967,2.369,21.506,13.072,21.506h18.179v123.988
	c0,9.859,7.74,17.878,17.255,17.878L404.618,512c0.007,0-0.007,0,0,0l0,0c9.514,0,17.255-8.021,17.255-17.879v-42.65
	c0-4.146-3.36-7.505-7.505-7.505s-7.505,3.359-7.505,7.505v42.65c0,1.555-1.028,2.869-2.245,2.869H263.505V317.425l19.917,42.379
	c2.95,6.277,9.21,10.329,15.944,10.329h107.497v46.315c0,4.146,3.36,7.505,7.505,7.505s7.505-3.359,7.505-7.505v-46.315h18.179
	C450.741,370.133,457.813,358.605,453.122,348.626z M72.462,355.011l29.936-63.694H244.18l-29.186,62.102
	c-0.454,0.967-1.324,1.704-2.359,1.704c-4.8,0-133.172,0-140.207,0C72.433,355.089,72.443,355.051,72.462,355.011z M105.137,494.121
	V370.133h107.497c6.734,0,12.994-4.053,15.944-10.329l19.917-42.379v179.564H107.383
	C106.165,496.989,105.137,495.676,105.137,494.121z M299.366,355.123c-0.961,0-1.865-0.652-2.359-1.704l-29.186-62.102h141.783
	l29.936,63.694c0.019,0.04,0.029,0.077,0.034,0.111C435.36,355.123,306.991,355.123,299.366,355.123z"/>
<path d="M152.286,118.725h13.744c4.145,0,7.505-3.359,7.505-7.505s-3.36-7.505-7.505-7.505h-13.744
	c-4.145,0-7.505,3.359-7.505,7.505S148.141,118.725,152.286,118.725z"/>
<path d="M338.466,111.22c0,4.146,3.36,7.505,7.505,7.505h13.744c4.145,0,7.505-3.359,7.505-7.505s-3.36-7.505-7.505-7.505h-13.744
	C341.826,103.715,338.466,107.075,338.466,111.22z"/>
<path d="M174.33,149.705l-11.903,6.872c-3.589,2.072-4.819,6.661-2.747,10.252c2.072,3.589,6.661,4.819,10.252,2.747l11.903-6.872
	c3.589-2.072,4.819-6.661,2.747-10.252C182.511,148.864,177.92,147.634,174.33,149.705z"/>
<path d="M337.67,72.734l11.903-6.872c3.589-2.072,4.819-6.661,2.747-10.252c-2.072-3.589-6.663-4.818-10.252-2.747l-11.903,6.872
	c-3.589,2.072-4.819,6.661-2.747,10.252C329.489,73.576,334.079,74.806,337.67,72.734z"/>
<path d="M297.233,39.802c3.59,2.072,8.179,0.843,10.252-2.747l6.873-11.904c2.072-3.589,0.843-8.179-2.747-10.252
	c-3.59-2.072-8.18-0.844-10.252,2.747l-6.873,11.904C292.414,33.14,293.643,37.73,297.233,39.802z"/>
<path d="M256,28.754c4.145,0,7.505-3.359,7.505-7.505V7.505c0-4.146-3.36-7.505-7.505-7.505c-4.145,0-7.505,3.359-7.505,7.505
	v13.744C248.496,25.395,251.856,28.754,256,28.754z"/>
<path d="M204.515,37.056c2.072,3.589,6.661,4.819,10.252,2.747c3.589-2.072,4.819-6.662,2.747-10.252l-6.873-11.904
	c-2.072-3.59-6.663-4.818-10.252-2.747c-3.589,2.072-4.819,6.662-2.747,10.252L204.515,37.056z"/>
<path d="M337.67,149.705c-3.59-2.072-8.179-0.845-10.252,2.747c-2.072,3.59-0.843,8.179,2.747,10.252l11.903,6.872
	c3.594,2.073,8.182,0.84,10.252-2.747c2.072-3.59,0.843-8.179-2.747-10.252L337.67,149.705z"/>
<path d="M162.427,65.862l11.903,6.872c3.591,2.072,8.181,0.842,10.252-2.747c2.072-3.59,0.843-8.179-2.747-10.252l-11.903-6.872
	c-3.591-2.072-8.18-0.845-10.252,2.747C157.608,59.2,158.838,63.789,162.427,65.862z"/>
<path d="M181.614,114.935c0.467,28.869,17.419,54.582,43.501,66.468v7.991c-8.027,1.367-14.164,8.354-14.164,16.764v6.871
	c0,7.904,5.423,14.548,12.737,16.456l7.942,15.886c10.036,20.07,38.707,20.066,48.739,0l7.943-15.887
	c7.315-1.908,12.736-8.552,12.736-16.456v-6.871c0-8.411-6.137-15.397-14.164-16.764v-7.991
	c26.539-12.088,43.51-38.313,43.51-67.691c0-33.521-22.585-63.047-54.923-71.8c-4.003-1.085-8.122,1.282-9.205,5.283
	c-1.083,4.002,1.283,8.122,5.284,9.205c54.437,14.735,59.54,90.981,6.72,112.372c-3.886,1.576-6.396,5.315-6.396,9.523v10.84h-8.371
	v-44.998h3.777c9.4,0,17.047-7.648,17.047-17.047v-0.494c0-9.4-7.648-17.047-17.047-17.047h-22.564
	c-9.4,0-17.047,7.648-17.047,17.047v0.494c0,9.4,7.648,17.047,17.047,17.047h3.777v44.998h-8.37v-11.205
	c0-4.009-2.416-7.565-6.152-9.059c-52.647-21.046-48.513-97.418,6.495-112.459c3.999-1.094,6.353-5.22,5.259-9.219
	c-1.093-3.997-5.223-6.347-9.218-5.259C203.638,50.922,181.065,80.942,181.614,114.935z M242.681,127.09v-0.494
	c0-1.105,0.934-2.037,2.037-2.037h22.564c1.105,0,2.037,0.934,2.037,2.037v0.494c0,1.105-0.934,2.037-2.037,2.037h-22.564
	C243.614,129.128,242.681,128.194,242.681,127.09z M266.945,238.658c-4.515,9.03-17.366,9.046-21.89,0.001l-4.303-8.606h30.494
	L266.945,238.658z M284.025,204.146c1.092,0,2.014,0.923,2.014,2.014v6.871c0,1.092-0.923,2.014-2.014,2.014
	c-7.531,0-49.82,0-56.05,0c-1.092,0-2.014-0.923-2.014-2.014v-6.871c0-1.092,0.923-2.014,2.014-2.014
	C234.754,204.146,277.3,204.146,284.025,204.146z"/>
<g>
</g>
<g>
</g>
<g>
</g>
<g>
</g>
<g>
</g>
<g>
</g>
<g>
</g>
<g>
</g>
<g>
</g>
<g>
</g>
<g>
</g>
<g>
</g>
<g>
</g>
<g>
</g>
<g>
</g>
</svg>
