<svg height="480.00037pt" viewBox="0 0 480.00037 480.00037" width="480.00037pt" xmlns="http://www.w3.org/2000/svg" xmlns:xlink="http://www.w3.org/1999/xlink"><linearGradient id="a"><stop offset="0" stop-color="#e93e3a"/><stop offset=".359" stop-color="#ed683c"/><stop offset=".705" stop-color="#f3903f"/><stop offset="1" stop-color="#fdc70c"/></linearGradient><linearGradient id="b" gradientUnits="userSpaceOnUse" x1="40" x2="40" xlink:href="#a" y1="483.496" y2="-46.36"/><linearGradient id="c" gradientUnits="userSpaceOnUse" x1="72" x2="72" xlink:href="#a" y1="483.496" y2="-46.36"/><linearGradient id="d" gradientUnits="userSpaceOnUse" x1="104" x2="104" xlink:href="#a" y1="483.496" y2="-46.36"/><linearGradient id="e" gradientUnits="userSpaceOnUse" x1="336" x2="336" xlink:href="#a" y1="483.496" y2="-46.36"/><linearGradient id="f" gradientUnits="userSpaceOnUse" x1="424" x2="424" xlink:href="#a" y1="483.496" y2="-46.36"/><linearGradient id="g" gradientUnits="userSpaceOnUse" x1="248" x2="248" xlink:href="#a" y1="483.496" y2="-46.36"/><linearGradient id="h" gradientUnits="userSpaceOnUse" x1="272" x2="272" xlink:href="#a" y1="483.496" y2="-46.36"/><linearGradient id="i" gradientUnits="userSpaceOnUse" x1="240" x2="240" xlink:href="#a" y1="483.496" y2="-46.36"/><linearGradient id="j" gradientUnits="userSpaceOnUse" x1="344" x2="344" xlink:href="#a" y1="483.496" y2="-46.36"/><path d="m45.601562 50.320312c-1.886718-1.886718-4.589843-2.699218-7.203124-2.160156-.5.085938-.984376.25-1.4375.480469-.511719.175781-1 .417969-1.449219.71875-.414063.296875-.8125.617187-1.191407.960937-1.464843 1.53125-2.292968 3.5625-2.320312 5.679688-.027344 1.050781.191406 2.089844.640625 3.039062.390625.953126.960937 1.824219 1.679687 2.5625 1.476563 1.558594 3.535157 2.425782 5.679688 2.398438 1.046875-.011719 2.078125-.230469 3.039062-.640625 1.925782-.855469 3.464844-2.394531 4.320313-4.320313.855469-1.9375.855469-4.140624 0-6.078124-.386719-1-.984375-1.902344-1.757813-2.640626zm0 0" fill="url(#b)"/><path d="m70.398438 48.160156c-.5.085938-.984376.25-1.4375.480469-.511719.175781-1 .417969-1.449219.71875-.414063.296875-.8125.617187-1.191407.960937-1.464843 1.53125-2.292968 3.5625-2.320312 5.679688-.027344 1.050781.191406 2.089844.640625 3.039062.390625.953126.960937 1.824219 1.679687 2.5625 2.277344 2.296876 5.714844 2.996094 8.710938 1.769532 2.992188-1.226563 4.957031-4.136719 4.96875-7.371094-.03125-2.117188-.859375-4.148438-2.320312-5.679688-1.921876-1.875-4.644532-2.683593-7.28125-2.160156zm0 0" fill="url(#c)"/><path d="m109.679688 50.320312c-1.921876-1.875-4.644532-2.683593-7.28125-2.160156-.5.085938-.984376.25-1.4375.480469-.511719.175781-1 .417969-1.449219.71875-.414063.296875-.8125.617187-1.191407.960937-.722656.765626-1.292968 1.660157-1.679687 2.640626-1.21875 2.957031-.558594 6.355468 1.679687 8.640624 1.476563 1.558594 3.535157 2.425782 5.679688 2.398438 1.046875-.011719 2.078125-.230469 3.039062-.640625.988282-.40625 1.886719-1.003906 2.640626-1.757813 2.289062-2.257812 2.957031-5.691406 1.679687-8.640624-.386719-.980469-.957031-1.875-1.679687-2.640626zm0 0" fill="url(#d)"/><path d="m336 256c2.128906.019531 4.171875-.816406 5.679688-2.320312.703124-.777344 1.273437-1.671876 1.679687-2.640626.855469-1.9375.855469-4.140624 0-6.078124-.40625-.96875-.972656-1.863282-1.679687-2.640626-.765626-.722656-1.660157-1.292968-2.640626-1.679687-2.980468-1.214844-6.402343-.558594-8.71875 1.679687-.707031.777344-1.273437 1.671876-1.679687 2.640626-1.054687 2.460937-.796875 5.285156.6875 7.511718 1.484375 2.226563 3.996094 3.554688 6.671875 3.527344zm0 0" fill="url(#e)"/><path d="m341.679688 418.320312c-3.207032-2.960937-8.152344-2.960937-11.359376 0-.707031.777344-1.273437 1.671876-1.679687 2.640626-1.425781 3.347656-.414063 7.238281 2.46875 9.464843 2.878906 2.226563 6.902344 2.226563 9.78125 0 2.882813-2.226562 3.894531-6.117187 2.46875-9.464843-.40625-.96875-.972656-1.863282-1.679687-2.640626zm0 0" fill="url(#e)"/><path d="m431.359375 332.960938c-.386719-.980469-.957031-1.875-1.679687-2.640626-3.207032-2.960937-8.152344-2.960937-11.359376 0-.722656.765626-1.292968 1.660157-1.679687 2.640626-.410156.960937-.628906 1.992187-.640625 3.039062-.027344 1.050781.191406 2.089844.640625 3.039062.40625.96875.976563 1.863282 1.679687 2.640626 1.503907 1.503906 3.550782 2.339843 5.679688 2.320312 1.039062.011719 2.074219-.175781 3.039062-.558594.957032-.46875 1.84375-1.058594 2.640626-1.761718.703124-.777344 1.273437-1.671876 1.679687-2.640626.855469-1.9375.855469-4.140624 0-6.078124zm0 0" fill="url(#f)"/><path d="m253.679688 330.320312c-3.207032-2.960937-8.152344-2.960937-11.359376 0-.707031.777344-1.273437 1.671876-1.679687 2.640626-.851563 1.9375-.851563 4.140624 0 6.078124.40625.96875.976563 1.863282 1.679687 2.640626 1.503907 1.503906 3.550782 2.339843 5.679688 2.320312 1.039062.011719 2.074219-.175781 3.039062-.558594.957032-.46875 1.84375-1.058594 2.640626-1.761718.703124-.777344 1.273437-1.671876 1.679687-2.640626.855469-1.9375.855469-4.140624 0-6.078124-.40625-.96875-.972656-1.863282-1.679687-2.640626zm0 0" fill="url(#g)"/><path d="m168 80h208c13.253906 0 24-10.746094 24-24s-10.746094-24-24-24h-208c-13.253906 0-24 10.746094-24 24s10.746094 24 24 24zm0-32h208c4.417969 0 8 3.582031 8 8s-3.582031 8-8 8h-208c-4.417969 0-8-3.582031-8-8s3.582031-8 8-8zm0 0" fill="url(#h)"/><path d="m448 245.695312v-205.695312c-.027344-22.082031-17.917969-39.9726562-40-40h-368c-22.082031.0273438-39.9726562 17.917969-40 40v368c.0273438 22.082031 17.917969 39.972656 40 40h205.695312c57.21875 46.277344 140.136719 41.902344 192.171876-10.132812 52.035156-52.035157 56.410156-134.953126 10.132812-192.171876zm-16-133.695312v116.976562c-56.820312-51.226562-143.808594-48.976562-197.902344 5.121094-54.097656 54.09375-56.347656 141.082032-5.121094 197.902344h-100.976562v-320zm-416-72c0-13.253906 10.746094-24 24-24h368c13.253906 0 24 10.746094 24 24v56h-416zm24 392c-13.253906 0-24-10.746094-24-24v-296h96v320zm296 32c-70.691406 0-128-57.308594-128-128s57.308594-128 128-128 128 57.308594 128 128c-.082031 70.65625-57.34375 127.917969-128 128zm0 0" fill="url(#i)"/><path d="m336 216c-66.273438 0-120 53.726562-120 120s53.726562 120 120 120 120-53.726562 120-120c-.074219-66.242188-53.757812-119.925781-120-120zm0 224c-57.4375 0-104-46.5625-104-104s46.5625-104 104-104 104 46.5625 104 104c-.066406 57.410156-46.589844 103.933594-104 104zm0 0" fill="url(#e)"/><path d="m336 332.6875-34.34375-34.34375-11.3125 11.3125 40 40c3.125 3.121094 8.1875 3.121094 11.3125 0l56-56-11.3125-11.3125zm0 0" fill="url(#j)"/></svg>